<svg xmlns="http://www.w3.org/2000/svg" width="31" height="30" viewBox="0 0 31 30" fill="none">
  <g clipPath="url(#clip0_1949_10074)">
    <path
      d="M30.375 15.0909C30.3747 12.2067 29.553 9.383 28.0072 6.95406C26.4615 4.52512 24.2564 2.59269 21.6531 1.38553C19.0497 0.178377 16.1571 -0.252942 13.3177 0.142638C10.4783 0.538217 7.81098 1.74413 5.63155 3.61761C3.45213 5.49109 1.85186 7.95368 1.0202 10.7138C0.188535 13.474 0.160309 16.4161 0.93886 19.1919C1.71741 21.9677 3.27014 24.4609 5.41321 26.3764C7.55628 28.2918 10.2 29.5493 13.0313 30V19.454H9.2225V15.0909H13.0313V11.7655C13.0313 7.98355 15.2712 5.89321 18.6962 5.89321C19.8214 5.90945 20.944 6.00781 22.055 6.18752V9.90283H20.1625C19.5928 9.82674 19.0164 9.98141 18.56 10.3328C18.1036 10.6843 17.8046 11.2037 17.7288 11.7768C17.7073 11.9374 17.704 12.0998 17.7188 12.2611V15.0909H21.875L21.21 19.454H17.71V30C21.2401 29.4403 24.4555 27.6308 26.7774 24.8975C29.0993 22.1642 30.3751 18.6866 30.375 15.0909Z"
      fill="white" />
  </g>
  <defs>
    <clipPath id="clip0_1949_10074">
      <rect width="30" height="30" fill="white" transform="translate(0.375)" />
    </clipPath>
  </defs>
</svg>