<svg width="36" height="27" viewBox="0 0 36 27" fill="none" xmlns="http://www.w3.org/2000/svg">
  <path
    d="M30.5489 2.29884C30.5386 2.2796 30.5217 2.26478 30.5012 2.25717C28.2334 1.21649 25.8402 0.474122 23.3815 0.0486307C23.3594 0.0445822 23.3366 0.0475762 23.3163 0.0571898C23.296 0.0668034 23.2793 0.0825508 23.2684 0.102207C22.9423 0.694103 22.6463 1.30207 22.3814 1.9238C19.7297 1.52131 17.0324 1.52131 14.3807 1.9238C14.1148 1.30054 13.8147 0.692414 13.4818 0.102207C13.4703 0.0831366 13.4534 0.0678801 13.4333 0.0583495C13.4132 0.048819 13.3907 0.0454381 13.3687 0.0486307C10.9057 0.472206 8.50836 1.21462 6.23707 2.25717C6.21715 2.26561 6.20046 2.28022 6.18945 2.29884C1.65331 9.07923 0.40915 15.687 1.01635 22.2174C1.01807 22.2338 1.02319 22.2497 1.03139 22.264C1.03959 22.2784 1.05069 22.2909 1.06397 22.3007C3.70627 24.2551 6.66123 25.7467 9.80288 26.7118C9.82546 26.7188 9.84966 26.7185 9.87208 26.7111C9.8945 26.7036 9.91402 26.6893 9.92789 26.6702C10.602 25.7525 11.1993 24.7809 11.7138 23.7651C11.7206 23.7511 11.7245 23.7359 11.7252 23.7203C11.7259 23.7048 11.7234 23.6893 11.7178 23.6747C11.7122 23.6602 11.7037 23.647 11.6927 23.6359C11.6818 23.6248 11.6687 23.6161 11.6542 23.6103C10.7104 23.2487 9.79676 22.8127 8.92185 22.3067C8.90639 22.2972 8.89343 22.2841 8.88406 22.2686C8.87469 22.2531 8.8692 22.2356 8.86803 22.2175C8.86686 22.1994 8.87006 22.1813 8.87736 22.1647C8.88465 22.1481 8.89582 22.1335 8.90994 22.1221C9.09448 21.9852 9.27902 21.8423 9.45166 21.6995C9.46689 21.6861 9.4856 21.6773 9.50562 21.6741C9.52565 21.671 9.54615 21.6736 9.56476 21.6816C15.2915 24.2949 21.4944 24.2949 27.1557 21.6816C27.1738 21.6728 27.1939 21.6692 27.2139 21.6713C27.2339 21.6734 27.253 21.6811 27.2688 21.6935C27.4414 21.8364 27.626 21.9852 27.8105 22.1221C27.8246 22.1335 27.8358 22.1481 27.8431 22.1647C27.8504 22.1813 27.8536 22.1994 27.8524 22.2175C27.8512 22.2356 27.8458 22.2531 27.8364 22.2686C27.827 22.2841 27.8141 22.2972 27.7986 22.3067C26.926 22.8154 26.0119 23.2495 25.0662 23.6044C25.0518 23.6102 25.0387 23.6189 25.0277 23.63C25.0168 23.641 25.0083 23.6543 25.0027 23.6688C24.9971 23.6833 24.9946 23.6988 24.9952 23.7144C24.9959 23.7299 24.9998 23.7452 25.0067 23.7592C25.5302 24.7699 26.127 25.7408 26.7926 26.6642C26.8064 26.6833 26.8259 26.6976 26.8484 26.7051C26.8708 26.7126 26.895 26.7129 26.9176 26.7059C30.0683 25.7451 33.0318 24.2532 35.6803 22.2947C35.6938 22.2852 35.7051 22.2728 35.7134 22.2584C35.7216 22.244 35.7266 22.2279 35.7279 22.2114C36.4542 14.669 34.5016 8.11486 30.5489 2.29884ZM12.571 18.2408C10.8446 18.2408 9.42785 16.6573 9.42785 14.7167C9.42785 12.776 10.8208 11.1866 12.571 11.1866C14.339 11.1866 15.7439 12.782 15.7141 14.7107C15.7141 16.6573 14.3212 18.2408 12.571 18.2408ZM24.203 18.2408C22.4767 18.2408 21.0599 16.6573 21.0599 14.7167C21.0599 12.776 22.4469 11.1866 24.203 11.1866C25.971 11.1866 27.3759 12.782 27.3462 14.7107C27.3462 16.6573 25.9651 18.2408 24.203 18.2408Z"
    fill="white" />
</svg>