<svg xmlns="http://www.w3.org/2000/svg" width="24" height="25" viewBox="0 0 24 25" fill="none">
  <mask id="mask0_5840_66013" style="mask-type:alpha" maskUnits="userSpaceOnUse" x="0" y="0" width="24" height="25">
    <rect width="24" height="24" transform="matrix(-1 0 0 1 24 0.5)" fill="#D9D9D9" />
  </mask>
  <g mask="url(#mask0_5840_66013)">
    <path
      d="M17.675 13.3502C17.825 13.2502 17.9375 13.1252 18.0125 12.9752C18.0875 12.8252 18.125 12.6669 18.125 12.5002C18.125 12.3335 18.0875 12.1752 18.0125 12.0252C17.9375 11.8752 17.825 11.7502 17.675 11.6502L9.525 6.4752C9.44167 6.4252 9.35417 6.3877 9.2625 6.3627C9.17083 6.3377 9.08333 6.3252 9 6.3252C8.73333 6.3252 8.5 6.42103 8.3 6.6127C8.1 6.80436 8 7.04186 8 7.3252V17.6752C8 17.9585 8.1 18.196 8.3 18.3877C8.5 18.5794 8.73333 18.6752 9 18.6752C9.08333 18.6752 9.17083 18.6627 9.2625 18.6377C9.35417 18.6127 9.44167 18.5752 9.525 18.5252L17.675 13.3502Z"
      fill="white" />
  </g>
</svg>