<svg xmlns="http://www.w3.org/2000/svg" width="43" height="43" viewBox="0 0 43 43" fill="none">
  <mask id="mask0_5764_86688" style="mask-type:alpha" maskUnits="userSpaceOnUse" x="0" y="0" width="43" height="43">
    <rect y="0.213013" width="42.3994" height="42.3994" fill="#D9D9D9" />
  </mask>
  <g mask="url(#mask0_5764_86688)">
    <path
      d="M21.1995 39.9625C20.8168 39.9625 20.4487 39.9036 20.0954 39.7858C19.7421 39.6681 19.4035 39.4914 19.0796 39.2558L8.47972 31.306C8.03806 30.9821 7.69209 30.5699 7.44182 30.0693C7.19154 29.5688 7.06641 29.0388 7.06641 28.4793V7.27962C7.06641 6.30797 7.41237 5.47618 8.10431 4.78424C8.79624 4.09231 9.62804 3.74634 10.5997 3.74634H31.7994C32.7711 3.74634 33.6028 4.09231 34.2948 4.78424C34.9867 5.47618 35.3327 6.30797 35.3327 7.27962V28.4793C35.3327 29.0388 35.2075 29.5688 34.9573 30.0693C34.707 30.5699 34.361 30.9821 33.9194 31.306L23.3195 39.2558C22.9956 39.4914 22.657 39.6681 22.3037 39.7858C21.9504 39.9036 21.5823 39.9625 21.1995 39.9625ZM19.3446 21.6778L16.8713 19.2045C16.5179 18.8511 16.1057 18.6818 15.6346 18.6965C15.1635 18.7113 14.7513 18.8806 14.398 19.2045C14.0446 19.5578 13.8606 19.9774 13.8459 20.4632C13.8312 20.949 14.0005 21.3686 14.3538 21.7219L18.1079 25.476C18.4612 25.8294 18.8735 26.006 19.3446 26.006C19.8157 26.006 20.2279 25.8294 20.5812 25.476L28.0894 17.9678C28.4428 17.6145 28.6121 17.2023 28.5974 16.7312C28.5826 16.2601 28.4133 15.8478 28.0894 15.4945C27.7361 15.1412 27.3165 14.9572 26.8307 14.9424C26.3449 14.9277 25.9253 15.097 25.572 15.4503L19.3446 21.6778Z"
      fill="url(#paint0_linear_5764_86688)" />
  </g>
  <defs>
    <linearGradient id="paint0_linear_5764_86688" x1="7.06641" y1="44.5113" x2="36.0968" y2="43.4859"
      gradientUnits="userSpaceOnUse">
      <stop stop-color="#9DEBFF" />
      <stop offset="1" stop-color="#00FF5E" />
    </linearGradient>
  </defs>
</svg>