<svg width="16" height="17" viewBox="0 0 16 17" fill="none" xmlns="http://www.w3.org/2000/svg">
<path d="M10 2.98633H14V6.98633" stroke="url(#paint0_linear_5011_119097)" stroke-width="1.33333" stroke-linecap="round" stroke-linejoin="round"/>
<path d="M6.66797 10.3197L14.0013 2.98633" stroke="url(#paint1_linear_5011_119097)" stroke-width="1.33333" stroke-linecap="round" stroke-linejoin="round"/>
<path d="M12 9.65299V13.653C12 14.0066 11.8595 14.3458 11.6095 14.5958C11.3594 14.8459 11.0203 14.9863 10.6667 14.9863H3.33333C2.97971 14.9863 2.64057 14.8459 2.39052 14.5958C2.14048 14.3458 2 14.0066 2 13.653V6.31966C2 5.96604 2.14048 5.6269 2.39052 5.37685C2.64057 5.1268 2.97971 4.98633 3.33333 4.98633H7.33333" stroke="url(#paint2_linear_5011_119097)" stroke-width="1.33333" stroke-linecap="round" stroke-linejoin="round"/>
<defs>
<linearGradient id="paint0_linear_5011_119097" x1="10" y1="4.98633" x2="14" y2="4.98633" gradientUnits="userSpaceOnUse">
<stop stop-color="#FFE8C9"/>
<stop offset="0.25" stop-color="#F9F4E9"/>
<stop offset="0.6" stop-color="#E3F6FF"/>
<stop offset="1" stop-color="#C9D4FF"/>
</linearGradient>
<linearGradient id="paint1_linear_5011_119097" x1="6.66797" y1="6.653" x2="14.0013" y2="6.653" gradientUnits="userSpaceOnUse">
<stop stop-color="#FFE8C9"/>
<stop offset="0.25" stop-color="#F9F4E9"/>
<stop offset="0.6" stop-color="#E3F6FF"/>
<stop offset="1" stop-color="#C9D4FF"/>
</linearGradient>
<linearGradient id="paint2_linear_5011_119097" x1="2" y1="9.98633" x2="12" y2="9.98633" gradientUnits="userSpaceOnUse">
<stop stop-color="#FFE8C9"/>
<stop offset="0.25" stop-color="#F9F4E9"/>
<stop offset="0.6" stop-color="#E3F6FF"/>
<stop offset="1" stop-color="#C9D4FF"/>
</linearGradient>
</defs>
</svg>
