<svg xmlns="http://www.w3.org/2000/svg" width="21" height="20" viewBox="0 0 21 20" fill="none">
  <path d="M18.8327 18.333H2.16602C1.82435 18.333 1.54102 18.0497 1.54102 17.708C1.54102 17.3663 1.82435 17.083 2.16602 17.083H18.8327C19.1743 17.083 19.4577 17.3663 19.4577 17.708C19.4577 18.0497 19.1743 18.333 18.8327 18.333Z" fill="currentColor"/>
  <path d="M8.625 3.33366V18.3337H12.375V3.33366C12.375 2.41699 12 1.66699 10.875 1.66699H10.125C9 1.66699 8.625 2.41699 8.625 3.33366Z" fill="currentColor"/>
  <path d="M3 8.33366V18.3337H6.33333V8.33366C6.33333 7.41699 6 6.66699 5 6.66699H4.33333C3.33333 6.66699 3 7.41699 3 8.33366Z" fill="currentColor"/>
  <path d="M14.666 12.4997V18.333H17.9993V12.4997C17.9993 11.583 17.666 10.833 16.666 10.833H15.9993C14.9993 10.833 14.666 11.583 14.666 12.4997Z" fill="currentColor"/>
</svg>