<svg xmlns="http://www.w3.org/2000/svg" width="23" height="21" fill="currentColor" viewBox="0 0 23 21">
  <path d="M3 .5h17.5C21.867.5 23 1.633 23 3v13.75c0 1.406-1.133 2.5-2.5 2.5h-.625l-.625 1.25h-2.5l-.625-1.25h-8.75L6.75 20.5h-2.5l-.625-1.25H3a2.468 2.468 0 0 1-2.5-2.5V3C.5 1.633 1.594.5 3 .5ZM9.25 13a3.164 3.164 0 0 1-2.734-1.563c-.547-.937-.547-2.148 0-3.124.586-.938 1.601-1.563 2.734-1.563 1.094 0 2.11.625 2.695 1.563.547.976.547 2.187 0 3.124C11.36 12.415 10.344 13 9.25 13Zm0-9.375c-2.266 0-4.297 1.21-5.43 3.125-1.132 1.953-1.132 4.336 0 6.25a6.218 6.218 0 0 0 5.43 3.125c2.227 0 4.258-1.172 5.39-3.125 1.133-1.914 1.133-4.297 0-6.25-1.132-1.914-3.163-3.125-5.39-3.125Zm10 5.547c.703-.274 1.25-.977 1.25-1.797 0-1.016-.86-1.875-1.875-1.875-1.055 0-1.875.86-1.875 1.875 0 .82.508 1.523 1.25 1.797v4.453c0 .352.273.625.625.625a.642.642 0 0 0 .625-.625V9.172Z"/>
</svg>
