<svg xmlns="http://www.w3.org/2000/svg" width="21" height="21" viewBox="0 0 21 21" fill="none">
  <path
    d="M16.2124 2.48087C16.9086 2.48087 17.5763 2.75743 18.0686 3.24971C18.5608 3.74199 18.8374 4.40967 18.8374 5.10587V12.6059C18.8374 13.7949 18.0474 14.7989 16.9634 15.1219L16.9624 15.5799C16.9624 16.0054 16.8635 16.4252 16.6737 16.8061C16.4839 17.187 16.2083 17.5187 15.8685 17.7749C15.5288 18.0312 15.1342 18.2052 14.7158 18.2831C14.2974 18.361 13.8666 18.3407 13.4574 18.2239L4.3324 15.6169C3.75741 15.4527 3.25159 15.1056 2.89159 14.6281C2.5316 14.1506 2.33704 13.5688 2.3374 12.9709V5.10587C2.3374 4.40967 2.61396 3.74199 3.10625 3.24971C3.59853 2.75743 4.26621 2.48087 4.9624 2.48087H16.2124ZM5.0874 4.63187C4.3974 4.63187 3.8374 5.19187 3.8374 5.88187V12.9719C3.8374 13.5299 4.2074 14.0209 4.7444 14.1739L13.8694 16.7809C14.0553 16.8339 14.251 16.8431 14.4411 16.8077C14.6312 16.7724 14.8105 16.6934 14.9649 16.577C15.1193 16.4606 15.2446 16.3099 15.3309 16.1369C15.4172 15.9639 15.4622 15.7732 15.4624 15.5799V14.6499C15.4368 14.5387 15.4368 14.4231 15.4624 14.3119V8.48987C15.4624 8.21816 15.3739 7.95385 15.2102 7.73697C15.0465 7.52008 14.8167 7.36242 14.5554 7.28787L5.4304 4.68087C5.31895 4.64835 5.2035 4.63152 5.0874 4.63087V4.63187ZM16.2124 3.98087H8.4434L14.9674 5.84487C15.5422 6.00899 16.0479 6.35596 16.4079 6.83322C16.7679 7.31049 16.9625 7.89206 16.9624 8.48987V13.4439C17.1924 13.2379 17.3374 12.9389 17.3374 12.6059V5.10587C17.3374 4.48487 16.8334 3.98087 16.2124 3.98087ZM12.4624 9.04387C12.6613 9.04387 12.8521 9.12288 12.9927 9.26354C13.1334 9.40419 13.2124 9.59495 13.2124 9.79387V12.6059C13.2124 12.7044 13.193 12.8019 13.1553 12.8929C13.1176 12.9839 13.0624 13.0666 12.9927 13.1362C12.9231 13.2058 12.8404 13.2611 12.7494 13.2988C12.6584 13.3365 12.5609 13.3559 12.4624 13.3559C12.3639 13.3559 12.2664 13.3365 12.1754 13.2988C12.0844 13.2611 12.0017 13.2058 11.9321 13.1362C11.8624 13.0666 11.8072 12.9839 11.7695 12.8929C11.7318 12.8019 11.7124 12.7044 11.7124 12.6059V9.79287C11.7124 9.59395 11.7914 9.40319 11.9321 9.26254C12.0727 9.12188 12.2635 9.04387 12.4624 9.04387Z"
    fill="white" fill-opacity="0.5" />
</svg>