<svg width="24" height="25" viewBox="0 0 24 25" fill="none" xmlns="http://www.w3.org/2000/svg">
<circle cx="12" cy="12.5" r="12" fill="#323546"/>
<path d="M19.9945 12.5036V12.4722C19.9785 8.08269 16.39 4.5 11.9972 4.5C7.6044 4.5 4 8.08269 4 12.5036C4 16.9245 7.58846 20.5 11.9972 20.5C14.0202 20.5012 15.9657 19.7341 17.4292 18.3581C17.5683 18.2271 17.6498 18.0477 17.6563 17.8583C17.6628 17.6689 17.5938 17.4845 17.4641 17.3445C17.3344 17.2046 17.1542 17.1202 16.9621 17.1095C16.7701 17.0988 16.5814 17.1625 16.4364 17.2871L16.4205 17.3029C15.789 17.8943 15.0428 18.3539 14.2265 18.6542C13.4103 18.9544 12.5409 19.089 11.6705 19.0499C10.8002 19.0108 9.94678 18.7989 9.16163 18.4268C8.37648 18.0546 7.67575 17.5301 7.1015 16.8845L10.5175 11.4869V13.9843C10.5175 15.1781 10.99 15.5665 11.3871 15.675C11.7842 15.7835 12.3798 15.705 13.0248 14.6969L14.8987 11.6982C14.949 11.6107 15.0067 11.5276 15.0712 11.4498V12.9705C15.0712 14.0871 15.5277 14.9867 16.3147 15.4208C16.6779 15.6155 17.0878 15.7097 17.5009 15.6933C17.914 15.677 18.3149 15.5508 18.6611 15.328C19.5698 14.7469 20.0582 13.7287 19.9945 12.5036ZM17.9162 14.0743C17.7899 14.16 17.6428 14.2109 17.4899 14.2217C17.337 14.2325 17.1839 14.2028 17.0466 14.1357C16.7321 13.9501 16.5422 13.5317 16.5422 12.9577V11.1999C16.5422 10.3631 16.2118 9.75765 15.6451 9.60344C14.6842 9.31785 13.961 10.4873 13.6929 10.9214L11.9972 13.6045V10.3003C11.9813 9.5406 11.7291 9.09081 11.2566 8.95087C10.9421 8.85806 10.4697 8.90518 10.0131 9.58773L6.21887 15.5751C5.71415 14.6275 5.44961 13.5737 5.44785 12.5036C5.44785 8.88947 8.39137 5.95792 11.9972 5.95792C15.6031 5.95792 18.5466 8.88947 18.5466 12.5036V12.535C18.5843 13.2318 18.3567 13.7916 17.9162 14.07V14.0743Z" fill="#646B80"/>
</svg>
